<svg id="Layer_1" data-name="Layer 1" xmlns="http://www.w3.org/2000/svg" viewBox="0 0 90.1 89.62"><title>github</title><path d="M93,16V5.4A2.43,2.43,0,0,0,90.6,3H5.4A2.43,2.43,0,0,0,3,5.4V16H93Z" transform="translate(-3 -3)"/><path d="M50,80.3L93,67.8V20H3V67.8L46,80.3A9,9,0,0,0,50,80.3ZM53,56H49V42h4V56Zm2-13.7,2,0.1L57.3,39H61v3h3v3H61v5.7c0,1.5.6,2.2,1.7,2.2a3.08,3.08,0,0,0,1.3-.3l0.6,2.9a10.28,10.28,0,0,1-3,.5c-3.5,0-4.6-2.1-4.6-5.2V45H55V42.3ZM51.2,36a2.14,2.14,0,0,1,2.4,2.1,2.42,2.42,0,0,1-4.8,0A2.14,2.14,0,0,1,51.2,36ZM31.5,46.9c0-5.9,4-9.3,8.9-9.3a8.18,8.18,0,0,1,5.8,2.3L44,42.5a4.89,4.89,0,0,0-3.5-1.4c-2.8,0-4.8,2.2-4.8,5.7,0,3.7,1.8,5.8,5.2,5.8a5.83,5.83,0,0,0,2-.5v-3h-3v-3h7v7.8C45,55,43.3,56,40.7,56,35.7,56,31.5,52.9,31.5,46.9Z" transform="translate(-3 -3)"/><path d="M51.1,84.2a10.12,10.12,0,0,1-3.1.4,10.12,10.12,0,0,1-3.1-.4L3,72v6.6a3.54,3.54,0,0,0,2.4,3.1L45.7,92.4a12.38,12.38,0,0,0,4.7,0L90.7,81.7a3.33,3.33,0,0,0,2.4-3.1V72Z" transform="translate(-3 -3)"/></svg>